<svg width="144" height="145" viewBox="0 0 144 145" fill="none" xmlns="http://www.w3.org/2000/svg">
<path d="M37.4999 4.30425C19.1738 4.30425 4.23915 19.2391 4.23915 37.5651C4.23915 55.8912 19.1086 70.826 37.4999 70.826C55.8259 70.826 70.6955 55.8912 70.6955 37.5651C70.6955 19.1738 55.7607 4.30425 37.4999 4.30425ZM37.4999 74.9998C16.826 74.9998 0 58.1737 0 37.4999C0 16.826 16.826 0 37.4999 0C58.1739 0 74.9999 16.826 74.9999 37.4999C74.9347 58.1737 58.1086 74.9998 37.4999 74.9998Z" fill="white"/>
<path d="M60.9459 26.9999C60.1802 26.9999 59.4785 26.6129 59.0956 25.9032C54.8849 18.0967 46.8461 13.2581 38.1054 13.2581C36.9571 13.2581 36 12.2902 36 11.1289C36 9.9676 36.8932 9 38.1054 9C48.3773 9 57.8197 14.6774 62.7323 23.8387C63.3065 24.8709 62.9237 26.1613 61.9028 26.6774C61.6476 26.9355 61.2649 26.9999 60.9459 26.9999Z" fill="white"/>
<path d="M100.736 75.0233C90.8442 75.0233 81.4046 70.2123 75.521 62.1504C74.8099 61.1751 75.0038 59.8748 75.9736 59.1596C76.9435 58.4445 78.2366 58.6395 78.9477 59.6148C84.0554 66.5713 92.2019 70.7323 100.801 70.7323C115.737 70.7323 127.891 58.5095 127.891 43.4909C127.891 28.4723 115.737 16.2494 100.801 16.2494C93.495 16.2494 86.7063 19.1102 81.5339 24.3114C80.6934 25.1566 79.4003 25.1566 78.5598 24.3114C77.7193 23.4662 77.7193 22.1659 78.5598 21.3207C84.508 15.3393 92.3958 12.0234 100.801 12.0234C118.064 12.0234 132.093 26.1318 132.093 43.4909C132.093 60.915 117.999 75.0233 100.736 75.0233Z" fill="white"/>
<path d="M37.5 144.024C36.6819 144.024 36 143.035 36 141.85V32.1968C36 31.0113 36.6364 30.0234 37.5 30.0234C38.3183 30.0234 39 31.0113 39 32.1968V141.85C38.9546 143.035 38.3183 144.024 37.5 144.024Z" fill="white"/>
<path d="M36.9901 48C36.5136 48 35.9776 47.8216 35.6203 47.4052L27.5806 39.316C26.8065 38.5429 26.8065 37.3531 27.5806 36.58C28.3548 35.8067 29.5458 35.8067 30.3201 36.58L38.4193 44.6692C39.1935 45.4425 39.1935 46.632 38.4193 47.4052C37.9429 47.8216 37.4665 48 36.9901 48Z" fill="white"/>
<path d="M37.9733 63.0234C37.4248 63.0234 36.9373 62.838 36.5716 62.4055C35.7793 61.6022 35.8402 60.3664 36.5716 59.5631L47.6024 48.6259C48.3946 47.8226 49.6745 47.8226 50.4058 48.6259C51.1981 49.4292 51.1981 50.7268 50.4058 51.4683L39.375 62.4055C38.9483 62.838 38.4609 63.0234 37.9733 63.0234Z" fill="white"/>
<path d="M13.4998 82.0964C8.30265 82.0964 4.1197 86.2795 4.1197 91.4766C4.1197 96.6737 8.30265 100.857 13.4998 100.857C18.6968 100.857 22.8798 96.6737 22.8798 91.4766C22.8798 86.2795 18.6968 82.0964 13.4998 82.0964ZM13.4998 104.977C6.02106 104.977 0 98.892 0 91.4766C0 83.9978 6.08443 77.9766 13.4998 77.9766C20.9785 77.9766 26.9995 84.0611 26.9995 91.4766C27.0629 98.892 20.9785 104.977 13.4998 104.977Z" fill="white"/>
<path d="M36.846 117.024C36.3427 117.024 35.7765 116.832 35.399 116.452L15.5197 96.5655C14.7018 95.7396 14.7018 94.4689 15.5197 93.643C16.3374 92.8169 17.5957 92.8169 18.4135 93.643L38.2929 113.529C39.1107 114.354 39.1107 115.626 38.2929 116.452C37.8525 116.769 37.3493 117.024 36.846 117.024Z" fill="white"/>
<path d="M56.0088 117.895C53.981 117.895 52.3456 119.425 52.3456 121.324V121.507C52.3456 123.406 53.981 124.936 56.0088 124.936H127.114C129.141 124.936 130.776 123.406 130.776 121.507V121.324C130.776 119.425 129.141 117.895 127.114 117.895M127.114 128.977H56.0088C51.6261 128.977 48.0938 125.67 48.0938 121.569V121.385C48.0938 117.282 51.6261 113.977 56.0088 113.977H127.114C131.496 113.977 135.094 117.282 135.094 121.385V121.569C135.094 125.67 131.496 128.977 127.114 128.977Z" fill="white"/>
<path d="M61.4063 117.024C60.5881 117.024 59.9062 115.977 59.9062 114.721V86.3258C59.9062 85.0699 60.5881 84.0234 61.4063 84.0234C62.2244 84.0234 62.9063 85.0002 62.9063 86.3258V114.721C62.9063 116.047 62.2244 117.024 61.4063 117.024Z" fill="white"/>
<path d="M121.593 117.024C120.776 117.024 120.094 115.977 120.094 114.721V86.3258C120.094 85.0699 120.776 84.0234 121.593 84.0234C122.412 84.0234 123.094 85.0002 123.094 86.3258V114.721C123.094 116.047 122.458 117.024 121.593 117.024Z" fill="white"/>
<path d="M129.753 96.0235H53.0601C51.8853 96.0235 50.9062 95.3773 50.9062 94.5466C50.9062 93.7157 51.8853 93.0234 53.0601 93.0234H129.753C130.927 93.0234 131.906 93.6696 131.906 94.5466C131.906 95.3773 130.927 96.0235 129.753 96.0235Z" fill="white"/>
<path d="M129.753 107.977H53.0601C51.8853 107.977 50.9062 107.295 50.9062 106.477C50.9062 105.658 51.8853 104.977 53.0601 104.977H129.753C130.927 104.977 131.906 105.614 131.906 106.477C131.906 107.295 130.927 107.977 129.753 107.977Z" fill="white"/>
<path d="M60.0937 129.023H57.0938V144.022H60.0937V129.023Z" fill="white"/>
<path d="M125.906 129.023H122.906V144.022H125.906V129.023Z" fill="white"/>
<path d="M100.5 83.9765C99.6818 83.9765 99 83.0116 99 81.8539V44.099C99 42.9413 99.6818 41.9766 100.5 41.9766C101.318 41.9766 102 42.877 102 44.099V81.8539C102 83.0116 101.318 83.9765 100.5 83.9765Z" fill="white"/>
<path d="M100.95 57C100.474 57 99.9975 56.8224 99.5806 56.4673C98.8065 55.6979 98.8065 54.5142 99.5806 53.7448L107.68 45.577C108.454 44.8077 109.646 44.8077 110.419 45.577C111.193 46.3465 111.193 47.5303 110.419 48.2996L102.38 56.4673C101.963 56.8224 101.486 57 100.95 57Z" fill="white"/>
<path d="M99.9054 66C99.4796 66 99.0537 65.8807 98.6887 65.6421L87.6774 57.53C86.8258 56.8738 86.6432 55.6809 87.3124 54.7861C87.9817 53.8914 89.1983 53.7721 90.1109 54.3686L101.122 62.4808C101.974 63.137 102.156 64.3299 101.548 65.2246C101.122 65.7018 100.514 66 99.9054 66Z" fill="white"/>
<path d="M117.916 33.0233C117.21 33.0233 116.569 32.7307 116.185 32.2038C112.786 27.6379 107.143 24.8867 101.116 24.8867C99.9618 24.8867 99 24.0088 99 22.9551C99 21.9015 99.9618 21.0234 101.116 21.0234C108.554 21.0234 115.48 24.4185 119.648 30.038C120.289 30.916 120.032 32.0868 119.07 32.6721C118.685 32.9649 118.3 33.0233 117.916 33.0233Z" fill="white"/>
<path d="M141.807 143.977H2.19289C0.996757 143.977 0 143.295 0 142.477C0 141.658 0.996757 140.977 2.19289 140.977H141.807C143.003 140.977 144 141.658 144 142.477C144 143.295 143.003 143.977 141.807 143.977Z" fill="white"/>
</svg>
