<svg width="144" height="144" viewBox="0 0 144 144" fill="none" xmlns="http://www.w3.org/2000/svg">
<g clip-path="url(#clip0_315_196)">
<path fill-rule="evenodd" clip-rule="evenodd" d="M0.830078 3.62223V140.377C0.830078 141.795 2.20485 143.17 3.62272 143.17H28.9286C32.2368 143.17 31.9792 139.088 31.9792 137.069H112.022C112.022 139.132 111.763 143.17 115.071 143.17H140.378C141.796 143.17 143.17 141.795 143.17 140.377V3.62223C143.17 2.20436 141.796 0.82959 140.378 0.82959H3.62272C2.20485 0.82959 0.830078 2.20436 0.830078 3.62223ZM25.5774 34.7713V136.769H7.2317V7.23122H136.769V136.769H118.423V34.7713C118.423 32.8378 116.833 31.7209 114.814 31.7209H29.1864C27.1671 31.6779 25.5774 32.7949 25.5774 34.7713ZM31.9361 38.0795H68.8854V130.624H31.9361V38.0795ZM75.0292 38.0795H111.978V130.624H75.0292V38.0795Z" fill="white"/>
<path fill-rule="evenodd" clip-rule="evenodd" d="M45.0039 22.6913C45.0039 24.4081 46.1831 25.3171 48.5416 25.3171C50.5825 25.3171 53.1224 22.4219 54.7098 21.614C56.2065 22.3546 60.742 27.3706 63.8715 24.4754C66.2753 22.2536 62.4202 20.2337 60.5152 18.8198C59.2 17.8436 56.8868 15.6553 54.982 15.5544C52.6688 15.4533 50.7186 17.5068 49.3579 18.4832C48.0881 19.4258 45.0039 21.1763 45.0039 22.6913Z" fill="white"/>
<path fill-rule="evenodd" clip-rule="evenodd" d="M79.3633 17.9073C79.3633 19.6365 82.0701 21.1622 83.3785 22.1454C85.3184 23.6033 86.8974 25.3664 89.5591 25.3664C91.1381 25.3664 93.1232 23.4338 94.7472 22.2471C96.597 20.8571 100.702 18.6532 98.221 16.4494C94.9277 13.5675 90.9577 18.4498 88.9727 19.433C88.4765 18.8905 85.2733 16.4155 84.4613 16.0087C83.4237 15.4662 82.4311 15.3983 81.2581 15.8392C80.4461 16.1782 79.3633 17.1614 79.3633 17.9073Z" fill="white"/>
<path fill-rule="evenodd" clip-rule="evenodd" d="M123.537 67.1323C123.537 69.7173 127.276 70.5675 128.244 67.9485C129.613 64.343 123.537 63.1186 123.537 67.1323Z" fill="white"/>
<path fill-rule="evenodd" clip-rule="evenodd" d="M123.537 76.6265C123.537 79.0349 125.983 80.1723 127.624 78.7339C128.328 78.1317 128.63 77.1282 128.328 76.158C127.424 73.2812 123.537 74.4854 123.537 76.6265Z" fill="white"/>
</g>
<defs>
<clipPath id="clip0_315_196">
<rect width="144" height="144" fill="white"/>
</clipPath>
</defs>
</svg>
