<svg width="156" height="144" viewBox="0 0 156 144" fill="none" xmlns="http://www.w3.org/2000/svg">
<g clip-path="url(#clip0_371_28)">
<path d="M3.06735 143.107C1.73086 142.188 0.473123 141.19 0.355187 139.353C0.237251 137.316 1.21993 135.758 3.26379 134.999C6.01527 134.001 8.76662 133.042 11.5574 132.124C12.54 131.804 12.8938 131.404 12.8938 130.287C12.8152 127.53 12.8545 124.735 12.8545 121.979C12.8545 120.062 13.6799 119.023 15.1735 119.023C16.7064 119.023 17.5319 119.982 17.5319 121.939C17.5712 124.535 17.5319 127.131 17.5319 130.007C18.593 129.647 19.4578 129.407 20.2832 129.048C20.5584 128.928 20.8335 128.449 20.8335 128.13C20.8335 119.542 20.8335 110.995 20.7943 102.408C20.7943 102.368 20.755 102.328 20.7157 102.249C20.5977 102.249 20.4405 102.169 20.3225 102.209C17.5712 103.047 17.5712 103.047 17.5712 106.043C17.5712 107.321 17.6105 108.599 17.5712 109.877C17.5319 111.754 16.6671 112.872 15.2521 112.872C13.8371 112.872 12.9331 111.754 12.8938 109.917C12.8545 108.399 12.8545 106.842 12.8545 105.284C12.8545 105.204 12.7758 105.084 12.7365 105.004C11.7932 105.084 10.8498 105.324 9.94586 105.284C6.95863 105.164 4.44303 102.888 4.04991 100.052C3.53897 96.7369 5.15052 93.981 8.21637 92.9026C15.6844 90.3066 23.1918 87.7105 30.66 85.1143C49.0551 78.7241 67.4502 72.3337 85.8453 65.9433C90.3262 64.3856 94.2174 66.6622 94.7677 71.0955C95.1215 73.8914 93.5493 76.6072 90.8371 77.7255C89.54 78.2447 88.2037 78.684 86.828 79.1633V106.003C89.5007 105.084 92.1343 104.325 94.6106 103.287C98.659 101.649 102.825 101.05 107.188 101.13C114.932 101.29 122.675 101.17 130.379 101.17C130.889 101.17 131.4 101.17 131.911 101.21C133.209 101.29 133.917 102.089 134.073 103.367C134.231 104.565 133.287 105.643 132.03 105.843C131.597 105.923 131.126 105.883 130.654 105.883C122.164 105.883 113.673 105.963 105.184 105.843C101.882 105.803 98.9342 106.802 95.9469 107.84C67.2143 117.825 38.4819 127.77 9.7493 137.755C9.23837 137.915 8.76662 138.114 8.33431 138.553H9.94586C55.855 138.553 101.725 138.553 147.595 138.553C150.582 138.553 151.054 138.074 151.054 134.959C151.054 126.292 151.054 117.585 151.054 108.918C151.054 106.442 150.464 105.843 148.027 105.843C146.259 105.843 144.49 105.883 142.721 105.843C141.071 105.803 140.127 104.925 140.127 103.487C140.127 102.009 140.992 101.21 142.721 101.17C144.253 101.13 145.747 101.29 147.28 101.13C151.289 100.771 154.12 102.328 155.652 106.163V138.194C154.71 140.51 153.058 142.148 150.817 143.107M25.5109 127.171C26.0612 127.011 26.4149 126.931 26.7294 126.812C31.8784 125.014 37.0275 123.217 42.1766 121.5C43.2771 121.14 43.4737 120.541 43.4737 119.503C43.4343 111.555 43.4737 103.607 43.4343 95.6185C43.4343 95.1792 43.395 94.7398 43.3557 94.3005C43.0807 94.3404 42.9234 94.3005 42.7662 94.3804C37.3026 96.2576 31.7998 98.1747 26.297 100.052C25.4716 100.331 25.4324 100.851 25.4324 101.57C25.4716 106.203 25.4324 110.796 25.4324 115.429C25.5109 119.263 25.5109 123.097 25.5109 127.171ZM74.0929 83.5167C68.315 85.5138 62.8121 87.4709 57.3093 89.348C56.3266 89.6675 56.1302 90.1468 56.1302 91.1053C56.1694 99.1732 56.1695 107.241 56.1695 115.269C56.1695 115.668 56.2087 116.068 56.248 116.627C62.026 114.63 67.7646 112.673 73.464 110.596C73.8178 110.476 74.1322 109.677 74.1322 109.158C74.1715 103.806 74.1715 98.4943 74.1715 93.1422V83.5167H74.0929ZM90.1689 72.2938C90.1689 70.2968 89.0291 69.7776 87.2603 70.3766C61.7901 79.2033 36.2807 88.0699 10.8106 96.8967C8.88456 97.5756 8.25569 98.2945 8.60937 99.4129C8.96318 100.611 9.94586 100.811 11.9504 100.092C29.4808 93.981 47.0111 87.9102 64.5416 81.7994C72.4813 79.0436 80.4604 76.2877 88.4002 73.4919C89.147 73.2922 89.7366 72.6133 90.1689 72.2938ZM78.8096 108.559C82.1113 107.92 82.1113 107.92 82.1113 104.925C82.1113 97.4158 82.1113 89.9471 82.1113 82.4385C82.1113 81.9192 82.072 81.4 82.0327 80.8009C81.4824 80.9606 81.1286 81.1204 80.8141 81.1603C79.1634 81.4 78.7309 82.3186 78.7702 83.9961C78.8882 90.5861 78.8096 97.2161 78.8096 103.846V108.559ZM51.4921 91.6645C48.7013 91.984 48.1904 92.3036 48.1904 93.8212C48.1904 101.929 48.1904 110.037 48.1904 118.145C48.1904 118.504 48.2297 118.863 48.269 119.223C51.4921 118.624 51.4921 118.624 51.4921 115.509C51.4921 108.16 51.4921 100.811 51.4921 93.5018V91.6645Z" fill="white"/>
<path d="M137.055 67.7889C136.552 67.7889 136.051 67.7889 135.584 67.7889C127.981 67.7889 120.379 67.7889 112.776 67.7889C112.238 67.7889 111.665 67.7493 111.127 67.6308C110.051 67.3143 109.513 66.5235 109.548 65.2975C109.585 64.1111 110.23 63.4388 111.235 63.2016C111.736 63.0829 112.238 63.0829 112.741 63.0829C120.344 63.0829 127.946 63.0829 135.549 63.0829H137.449C135.907 61.3429 134.581 59.9193 133.29 58.4561C132.895 58.021 132.465 57.6256 132.142 57.1511C131.46 56.1229 131.425 55.0552 132.214 54.106C132.967 53.1569 134.115 53.0382 135.047 53.9083C135.907 54.6992 136.625 55.6088 137.414 56.4392C139.53 58.7725 141.681 61.1057 143.761 63.4388C145.052 64.8625 145.052 65.9698 143.797 67.3934C141.036 70.478 138.274 73.5231 135.477 76.568C134.33 77.8336 133.147 77.9127 132.214 76.8449C131.353 75.8562 131.46 74.4326 132.573 73.2066C134.115 71.5063 135.656 69.8848 137.234 68.2238C137.126 68.0657 137.091 67.9075 137.055 67.7889Z" fill="white"/>
</g>
<defs>
<clipPath id="clip0_371_28">
<rect width="156" height="91" fill="white" transform="translate(0 53)"/>
</clipPath>
</defs>
</svg>
