<svg width="156" height="144" viewBox="0 0 156 144" fill="none" xmlns="http://www.w3.org/2000/svg">
<path d="M31.03 143.647H10.3476C9.65763 143.647 8.99595 143.373 8.508 142.884C8.02015 142.397 7.74609 141.736 7.74609 141.045V129.547C7.74609 128.856 8.02015 128.195 8.508 127.706C8.99595 127.219 9.65763 126.945 10.3476 126.945H31.1601C31.8501 126.945 32.5119 127.219 32.9997 127.706C33.4876 128.195 33.7617 128.856 33.7617 129.547V141.045C33.7622 141.398 33.6908 141.748 33.5519 142.072C33.4132 142.396 33.2098 142.689 32.9543 142.932C32.6988 143.175 32.3964 143.365 32.0656 143.487C31.7349 143.61 31.3824 143.665 31.03 143.647ZM12.9492 138.443H28.5586V132.149H12.9492V138.443ZM106.891 143.647H86.0791C85.3892 143.647 84.7274 143.373 84.2395 142.884C83.7517 142.397 83.4775 141.736 83.4775 141.045V129.547C83.4775 128.856 83.7517 128.195 84.2395 127.706C84.7274 127.219 85.3892 126.945 86.0791 126.945H106.891C107.582 126.945 108.243 127.219 108.731 127.706C109.219 128.195 109.493 128.856 109.493 129.547V141.045C109.493 141.736 109.219 142.397 108.731 142.884C108.243 143.373 107.582 143.647 106.891 143.647ZM88.6806 138.443H104.29V132.149H88.6806V138.443Z" fill="white"/>
<path d="M151.795 143.647H3.50586C2.81588 143.647 2.15417 143.373 1.66628 142.886C1.17839 142.397 0.904297 141.736 0.904297 141.045C0.904297 140.356 1.17839 139.694 1.66628 139.206C2.15417 138.719 2.81588 138.445 3.50586 138.445H151.795C152.485 138.445 153.147 138.719 153.635 139.206C154.122 139.694 154.396 140.356 154.396 141.045C154.396 141.736 154.122 142.397 153.635 142.886C153.147 143.373 152.485 143.647 151.795 143.647ZM26.1654 115.629H25.3329C23.0697 115.394 20.9623 115.082 19.0371 114.718C18.3472 114.586 17.7375 114.187 17.3424 113.606C16.9472 113.026 16.7988 112.312 16.9299 111.623C17.061 110.932 17.4608 110.323 18.0415 109.928C18.622 109.532 19.3358 109.384 20.0258 109.515C21.9524 109.9 23.8975 110.186 25.8533 110.374C26.3204 110.419 26.7918 110.354 27.228 110.181C27.6644 110.008 28.0529 109.732 28.361 109.378C28.6693 109.024 28.8882 108.601 28.9995 108.145C29.1109 107.69 29.1115 107.214 29.0012 106.757L28.8711 106.289C19.3234 103.401 9.82769 99.5508 9.41144 99.3687C9.07477 99.2557 8.76486 99.075 8.50079 98.8377C8.23661 98.6004 8.02383 98.3116 7.87553 97.989C7.72723 97.6663 7.64654 97.3168 7.63843 96.9618C7.63033 96.6069 7.69493 96.2541 7.82835 95.9249C7.96178 95.5959 8.16113 95.2977 8.4141 95.0486C8.66718 94.7994 8.96844 94.6047 9.29955 94.4765C9.63066 94.3482 9.98442 94.2891 10.3393 94.3027C10.694 94.3163 11.0424 94.4025 11.3626 94.5558C11.3626 94.5558 22.0029 98.8743 31.7588 101.71C32.1957 101.838 32.5916 102.078 32.9065 102.407C33.2215 102.736 33.4447 103.141 33.5539 103.583L34.0482 105.509C34.3481 106.699 34.3735 107.942 34.122 109.143C33.8706 110.344 33.3493 111.473 32.5972 112.443C31.8452 113.413 30.8824 114.199 29.7816 114.742C28.6808 115.284 27.4709 115.57 26.2435 115.576L26.1654 115.629ZM91.3606 115.629C90.1332 115.622 88.9234 115.337 87.8226 114.794C86.7217 114.251 85.7589 113.465 85.007 112.495C84.255 111.525 83.7335 110.396 83.4822 109.195C83.2308 107.993 83.256 106.751 83.556 105.561L84.0242 103.635C84.1334 103.193 84.3566 102.788 84.6717 102.458C84.9866 102.13 85.3824 101.89 85.8193 101.762C95.5752 98.9264 106.111 94.6599 106.216 94.6078C106.535 94.4545 106.884 94.3684 107.239 94.3547C107.593 94.3411 107.947 94.4002 108.278 94.5286C108.61 94.6568 108.911 94.8515 109.164 95.1006C109.417 95.3496 109.617 95.6479 109.75 95.977C109.883 96.306 109.948 96.6589 109.94 97.0139C109.932 97.3688 109.851 97.7184 109.702 98.0411C109.555 98.3636 109.342 98.6524 109.077 98.8898C108.813 99.127 108.503 99.3077 108.167 99.4207C107.751 99.6028 98.2808 103.453 88.733 106.341L88.6029 106.81C88.4875 107.264 88.4834 107.74 88.5911 108.196C88.6987 108.652 88.915 109.076 89.2214 109.431C89.5279 109.786 89.9155 110.062 90.3513 110.235C90.7872 110.408 91.2583 110.474 91.7248 110.425C93.6809 110.241 95.626 109.954 97.5523 109.567C98.2423 109.436 98.9561 109.585 99.5367 109.98C100.117 110.375 100.517 110.984 100.648 111.674C100.779 112.364 100.631 113.078 100.236 113.658C99.8406 114.239 99.231 114.638 98.541 114.769C96.6418 115.135 94.5085 115.447 92.2712 115.681L91.3606 115.629Z" fill="white"/>
<path d="M106.892 132.148C106.203 132.148 105.54 131.873 105.053 131.386C104.565 130.898 104.291 130.236 104.291 129.546V97.1568C104.082 94.4368 103.187 91.8142 101.689 89.5342L99.608 86.4384C99.3999 86.7246 99.1918 87.0367 98.9577 87.3228C98.0689 88.4002 96.9522 89.267 95.6881 89.8609C94.424 90.4547 93.0438 90.7607 91.6472 90.757H25.5936C24.0384 90.7313 22.5134 90.3241 21.1526 89.5711C19.7917 88.8181 18.6366 87.7423 17.7889 86.4384L15.6816 89.5603C14.1927 91.8542 13.2986 94.4828 13.0801 97.2088V129.546C13.0801 130.236 12.8059 130.898 12.3181 131.386C11.8302 131.873 11.1684 132.148 10.4785 132.148C9.78848 132.148 9.12681 131.873 8.63886 131.386C8.15101 130.898 7.87695 130.236 7.87695 129.546V96.8706C8.14346 93.2403 9.33461 89.7384 11.3369 86.6985L16.8002 78.4776C17.1281 77.9571 17.63 77.5696 18.2164 77.384C18.8029 77.1983 19.4363 77.2265 20.0039 77.4636C20.5716 77.7007 21.0369 78.1312 21.3173 78.6788C21.5976 79.2264 21.6747 79.8557 21.5351 80.4547C21.3821 81.1991 21.4269 81.9705 21.6652 82.6922C21.9509 83.5122 22.4801 84.2256 23.1821 84.737C23.884 85.2484 24.7253 85.5333 25.5936 85.5538H91.5952C92.2248 85.556 92.8471 85.4195 93.4181 85.1542C93.9891 84.889 94.4947 84.5013 94.8992 84.0189C95.3107 83.5268 95.608 82.9496 95.77 82.3288C95.9319 81.7081 95.9543 81.0592 95.8357 80.4288C95.7245 79.8413 95.819 79.2335 96.1033 78.7076C96.3876 78.1817 96.8444 77.7697 97.3967 77.541C97.9522 77.3045 98.5727 77.2687 99.1517 77.4396C99.7308 77.6105 100.232 77.9774 100.571 78.4776L106.034 86.6725C108.024 89.7085 109.215 93.1987 109.494 96.8186V129.546C109.494 130.236 109.22 130.898 108.731 131.386C108.244 131.873 107.583 132.148 106.892 132.148Z" fill="white"/>
<path d="M105.67 132.149H38.9655C38.2755 132.149 37.6138 131.875 37.1259 131.386C36.638 130.899 36.364 130.236 36.364 129.547C36.364 128.857 36.638 128.195 37.1259 127.707C37.6138 127.219 38.2755 126.945 38.9655 126.945H105.67C106.359 126.945 107.021 127.219 107.509 127.707C107.996 128.195 108.271 128.857 108.271 129.547C108.271 130.236 107.996 130.899 107.509 131.386C107.021 131.875 106.359 132.149 105.67 132.149ZM92.2455 56.3907H25.0211C24.6227 56.4015 24.2272 56.3206 23.8652 56.1542C23.503 55.9878 23.1839 55.7405 22.9325 55.4312C22.6811 55.1221 22.5042 54.7592 22.4153 54.3707C22.3262 53.9823 22.3278 53.5786 22.4196 53.1908L22.7578 51.812C23.2061 49.6823 24.3744 47.7722 26.0659 46.4028C27.7575 45.0335 29.869 44.2886 32.0453 44.2935H85.1433C87.3373 44.2925 89.4639 45.0512 91.1619 46.4408C92.8598 47.8304 94.024 49.7651 94.4568 51.9161L94.7691 53.1908C94.8609 53.5786 94.8623 53.9823 94.7734 54.3707C94.6844 54.7592 94.5074 55.1221 94.256 55.4312C94.0046 55.7405 93.6856 55.9878 93.3234 56.1542C92.9613 56.3206 92.5658 56.4015 92.1674 56.3907H92.2455ZM28.6893 51.1876H88.5253C88.1296 50.6582 87.6149 50.2294 87.0229 49.9356C86.4309 49.6419 85.7781 49.4915 85.1172 49.4966H32.0974C31.4369 49.4935 30.7848 49.6449 30.193 49.9385C29.6014 50.232 29.0865 50.6598 28.6893 51.1876Z" fill="white"/>
<path d="M91.595 90.7571H25.5933C23.6313 90.7571 21.7174 90.1492 20.1149 89.0172C18.5123 87.8852 17.2998 86.2844 16.6439 84.4353C16.0994 82.8649 15.9651 81.1813 16.2538 79.5443L16.9041 76.2925L22.3934 53.2165C22.5308 52.6345 22.8645 52.1175 23.3382 51.7527C23.8121 51.3878 24.3972 51.1973 24.995 51.2133H92.2454C92.8432 51.1973 93.4283 51.3878 93.9021 51.7527C94.3759 52.1175 94.7096 52.6345 94.847 53.2165L101.039 79.4142V79.5704C101.286 80.938 101.23 82.3433 100.875 83.687C100.52 85.0307 99.8747 86.2801 98.984 87.3471C98.0933 88.414 96.9792 89.2722 95.7204 89.8615C94.4617 90.4507 93.0889 90.7564 91.699 90.7571H91.595ZM21.4829 80.3508C21.4708 80.4021 21.4708 80.4556 21.4829 80.5069C21.3298 81.2513 21.3746 82.0227 21.613 82.7443C21.9103 83.5628 22.4511 84.2709 23.1626 84.7732C23.8742 85.2755 24.7224 85.5478 25.5933 85.554H91.595C92.2246 85.5561 92.8469 85.4196 93.4179 85.1544C93.9888 84.8892 94.4946 84.5016 94.8989 84.019C95.3105 83.5269 95.6079 82.9497 95.7698 82.329C95.9317 81.7082 95.9542 81.0593 95.8356 80.4289V80.2988L95.1591 77.203L90.1902 56.3905H27.0763L21.4829 80.3508Z" fill="white"/>
<path d="M16.463 86.1785H9.33479C7.72585 86.1798 6.16263 85.6427 4.89442 84.6526C3.62616 83.6625 2.72572 82.2764 2.33655 80.7153L1.60812 77.7755C1.44394 77.0633 1.43806 76.3237 1.5909 75.609C1.74374 74.8942 2.05156 74.2218 2.49264 73.6391C2.94764 73.0587 3.52798 72.5888 4.19024 72.2644C4.85249 71.94 5.57955 71.7696 6.31692 71.7659H19.5329C20.2229 71.7659 20.8846 72.04 21.3724 72.5278C21.8604 73.0158 22.1344 73.6775 22.1344 74.3674V76.6568C22.1613 76.8292 22.1613 77.0048 22.1344 77.1772L21.51 80.351C21.4486 80.7241 21.3065 81.0792 21.0938 81.3916L18.6224 85.0079C18.3866 85.3658 18.0663 85.6598 17.6895 85.864C17.3128 86.0683 16.8916 86.1763 16.463 86.1785ZM6.75926 76.9691L7.38363 79.5706C7.49386 80.0037 7.74583 80.3875 8.09936 80.6609C8.45301 80.9344 8.8878 81.0817 9.33479 81.0795H15.1883L16.5411 79.0242L16.9313 77.0731L6.75926 76.9691ZM107.908 86.1785H100.78C100.351 86.1763 99.9299 86.0683 99.5532 85.864C99.1765 85.6598 98.8561 85.3658 98.6204 85.0079L96.2009 81.3916C95.9758 81.0665 95.833 80.6915 95.7847 80.2991L95.1603 77.2032C95.1462 77.03 95.1462 76.8559 95.1603 76.6829V74.3934C95.1603 73.7034 95.4344 73.0418 95.9223 72.5539C96.4102 72.066 97.0719 71.7919 97.7618 71.7919H110.926C111.656 71.8007 112.375 71.9727 113.03 72.2956C113.685 72.6185 114.259 73.0839 114.711 73.6578C115.163 74.2317 115.48 74.8993 115.64 75.6119C115.8 76.3245 115.798 77.0637 115.634 77.7755L114.906 80.7413C114.512 82.2976 113.61 83.6778 112.342 84.6628C111.073 85.6478 109.514 86.1813 107.908 86.1785ZM102.185 80.9754H107.908C108.355 80.9776 108.79 80.8303 109.143 80.5569C109.497 80.2834 109.749 79.8997 109.859 79.4666L110.484 76.8649H100.416L100.806 78.8161L102.185 80.9754ZM74.5039 107.641H42.7388C42.0488 107.641 41.3871 107.367 40.8992 106.88C40.4113 106.391 40.1373 105.73 40.1373 105.04C40.1373 104.35 40.4113 103.688 40.8992 103.2C41.3871 102.713 42.0488 102.438 42.7388 102.438H74.5039C75.1939 102.438 75.8555 102.713 76.3435 103.2C76.8313 103.688 77.1054 104.35 77.1054 105.04C77.1054 105.73 76.8313 106.391 76.3435 106.88C75.8555 107.367 75.1939 107.641 74.5039 107.641ZM74.5039 115.447H42.7388C42.0488 115.447 41.3871 115.172 40.8992 114.684C40.4113 114.197 40.1373 113.534 40.1373 112.845C40.1373 112.154 40.4113 111.493 40.8992 111.005C41.3871 110.517 42.0488 110.243 42.7388 110.243H74.5039C75.1939 110.243 75.8555 110.517 76.3435 111.005C76.8313 111.493 77.1054 112.154 77.1054 112.845C77.1054 113.534 76.8313 114.197 76.3435 114.684C75.8555 115.172 75.1939 115.447 74.5039 115.447ZM25.8547 125.254H18.7524C18.0624 125.254 17.4007 124.98 16.9129 124.492C16.4249 124.005 16.1509 123.342 16.1509 122.653C16.1509 121.962 16.4249 121.301 16.9129 120.813C17.4007 120.325 18.0624 120.051 18.7524 120.051H25.8547C26.5447 120.051 27.2063 120.325 27.6943 120.813C28.1821 121.301 28.4562 121.962 28.4562 122.653C28.4562 123.342 28.1821 124.005 27.6943 124.492C27.2063 124.98 26.5447 125.254 25.8547 125.254ZM98.6984 125.254H91.5961C90.9061 125.254 90.2445 124.98 89.7566 124.492C89.2687 124.005 88.9946 123.342 88.9946 122.653C88.9946 121.962 89.2687 121.301 89.7566 120.813C90.2445 120.325 90.9061 120.051 91.5961 120.051H98.6984C99.3884 120.051 100.05 120.325 100.538 120.813C101.026 121.301 101.3 121.962 101.3 122.653C101.3 123.342 101.026 124.005 100.538 124.492C100.05 124.98 99.3884 125.254 98.6984 125.254ZM126.457 56.3906C120.929 56.3958 115.523 54.7625 110.924 51.6971C106.323 48.6319 102.735 44.272 100.611 39.1682C98.487 34.0644 97.9233 28.4458 98.9912 23.0219C100.059 17.598 102.71 12.6122 106.61 8.69428C110.51 4.77642 115.483 2.1021 120.902 1.00908C126.32 -0.0838277 131.942 0.453635 137.055 2.55364C142.169 4.65365 146.546 8.22208 149.633 12.808C152.719 17.394 154.378 22.7918 154.398 28.3197C154.408 31.9981 153.693 35.6423 152.294 39.0441C150.896 42.4461 148.84 45.5388 146.245 48.1458C143.65 50.7527 140.567 52.8228 137.172 54.2375C133.776 55.6522 130.135 56.3839 126.457 56.3906ZM126.457 5.6602C121.954 5.65498 117.55 6.98576 113.803 9.48393C110.057 11.9821 107.135 15.5354 105.408 19.6945C103.681 23.8535 103.226 28.4314 104.102 32.8489C104.977 37.2662 107.143 41.3248 110.325 44.511C113.508 47.6971 117.564 49.8677 121.98 50.7482C126.397 51.6286 130.976 51.1794 135.136 49.4573C139.297 47.7351 142.854 44.8175 145.357 41.0734C147.859 37.3294 149.195 32.9271 149.195 28.4239C149.205 25.4289 148.625 22.4613 147.487 19.6906C146.35 16.92 144.678 14.4008 142.566 12.277C140.454 10.1533 137.944 8.4665 135.18 7.31321C132.416 6.16003 129.452 5.56297 126.457 5.55608V5.6602Z" fill="white"/>
<path d="M126.455 132.147C125.766 132.147 125.103 131.874 124.616 131.386C124.128 130.898 123.854 130.236 123.854 129.547V56.0522C123.854 55.3622 124.128 54.7005 124.616 54.2126C125.103 53.7247 125.766 53.4507 126.455 53.4507C127.146 53.4507 127.807 53.7247 128.295 54.2126C128.783 54.7005 129.057 55.3622 129.057 56.0522V129.547C129.057 130.236 128.783 130.898 128.295 131.386C127.807 131.874 127.146 132.147 126.455 132.147Z" fill="white"/>
<path d="M136.679 143.647C135.99 143.647 135.327 143.373 134.84 142.886C134.351 142.397 134.077 141.736 134.077 141.046V134.75H115.477C114.786 134.75 114.125 134.476 113.636 133.988C113.149 133.501 112.875 132.839 112.875 132.149C112.875 131.458 113.149 130.797 113.636 130.309C114.125 129.821 114.786 129.547 115.477 129.547H136.679C137.369 129.547 138.031 129.821 138.518 130.309C139.007 130.797 139.281 131.458 139.281 132.149V141.046C139.281 141.736 139.007 142.397 138.518 142.886C138.031 143.373 137.369 143.647 136.679 143.647ZM120.888 43.2271C120.198 43.2271 119.536 42.9531 119.048 42.4651C118.56 41.9773 118.286 41.3155 118.286 40.6255V17.2115C118.286 16.5215 118.56 15.8599 119.048 15.3719C119.536 14.8841 120.198 14.6099 120.888 14.6099H128.9C131.661 14.5824 134.318 15.6523 136.289 17.5842C138.261 19.5163 139.383 22.1522 139.411 24.9121C139.438 27.672 138.368 30.3298 136.436 32.301C134.504 34.272 131.868 35.3949 129.109 35.4224H128.822C128.132 35.4224 127.47 35.1483 126.983 34.6605C126.495 34.1725 126.221 33.5109 126.221 32.8209C126.221 32.1309 126.495 31.4692 126.983 30.9813C127.47 30.4934 128.132 30.2193 128.822 30.2193H129.109C130.488 30.2193 131.812 29.6712 132.787 28.6953C133.763 27.7195 134.311 26.3961 134.311 25.0161C134.311 23.6362 133.763 22.3128 132.787 21.337C131.812 20.3612 130.488 19.813 129.109 19.813H123.489V40.6255C123.489 41.3155 123.215 41.9773 122.727 42.4651C122.239 42.9531 121.577 43.2271 120.888 43.2271Z" fill="white"/>
</svg>
