<svg width="125" height="144" viewBox="0 0 125 144" fill="none" xmlns="http://www.w3.org/2000/svg">
<path fill-rule="evenodd" clip-rule="evenodd" d="M104.729 124.392H119.968V139.504H104.729V124.392ZM64.6577 124.392H99.9263V139.504H64.6577V124.392ZM24.8675 124.392H60.1364V139.504H24.8675V124.392ZM4.82585 124.392H20.065V139.504H4.82585V124.392ZM44.6162 104.806H80.1779V119.92H44.6162V104.806ZM4.82585 104.806H40.0948V119.92H4.82585V104.806ZM104.718 85.2214H119.957V100.334H104.718V85.2214ZM64.646 85.2214H99.915V100.334H64.646V85.2214ZM24.8558 85.2214H60.1247V100.334H24.8558V85.2214ZM4.81424 85.2214H20.0532V100.334H4.81424V85.2214ZM84.6758 65.6364H119.944V80.7491H84.6758V65.6364ZM44.6045 65.6364H79.3112C79.9554 65.6364 80.1545 65.8338 80.1545 66.4728V80.7491H44.5928V65.6364H44.6045ZM4.81424 65.6364H40.0832V80.7491H4.81424V65.6364ZM104.705 46.0512H119.944V61.1641H104.705V46.0512ZM64.6343 46.0512H99.9038V61.1641H64.6343V46.0512ZM4.81424 46.0512H20.0532V61.1641H4.81424V46.0512ZM0.0117255 44.088V141.48C0.0117255 142.63 0.960555 144 1.99122 144H122.487C123.939 144 124.747 142.839 124.747 141.48V117.69C124.747 113.868 119.944 113.868 119.944 117.69V119.931H84.6758V104.818H119.944V107.06C119.944 111.045 124.747 111.045 124.747 107.06V44.088C124.747 42.9381 123.798 41.5674 122.767 41.5674H62.3736C61.0031 41.5674 60.1129 42.4501 60.1129 43.8092V61.1641H24.844V44.6572C24.844 42.9148 24.0358 41.579 22.3022 41.579H1.97961C0.948828 41.579 0 42.9381 0 44.0998L0.0117255 44.088Z" fill="white"/>
<path fill-rule="evenodd" clip-rule="evenodd" d="M30.4932 5.66477C31.5453 5.74706 31.7674 5.98208 32.5274 6.45211L38.291 9.7188C39.6237 10.4473 40.7811 11.2346 42.0437 11.8926C46.4978 14.2075 52.8693 18.2966 57.1598 20.4823C58.3055 21.0697 60.176 22.3741 61.1931 22.6561C61.0879 23.9721 58.5628 28.0496 57.7561 29.401C56.4584 31.5747 55.3127 33.7486 54.1437 35.9695C53.2084 35.7462 52.9628 35.5229 52.2264 35.0647L23.4437 18.6961C23.6775 17.6739 27.8394 10.5413 28.7044 8.97846C29.2072 8.06196 30.236 6.5814 30.4815 5.67662L30.4932 5.66477ZM17.8203 19.5422C17.8203 21.3636 19.5974 21.9158 21.6667 23.0322L38.0103 32.3621C38.9105 32.8674 39.5302 33.2669 40.3484 33.6899C55.9089 41.7625 54.3424 44.6179 58.5394 37.5323C60.0007 35.0647 66.8281 23.1966 66.8281 22.0804C66.8281 20.0945 65.0745 19.6479 62.9 18.3907C62.1752 17.9676 61.3685 17.5212 60.5736 17.0394C59.7201 16.5224 59.0888 16.2638 58.212 15.735L44.1948 7.74465C42.5112 6.81642 41.1434 5.94679 39.5068 5.10085C38.6884 4.67782 38.0688 4.27823 37.1687 3.77303L32.4806 1.12911C28.0498 -1.46781 28.5174 0.0715903 23.1864 9.36621C22.2628 10.9878 21.316 12.5389 20.4508 14.2545C19.8546 15.4413 17.8203 18.3907 17.8203 19.5422Z" fill="white"/>
</svg>
