<svg width="141" height="144" viewBox="0 0 141 144" fill="none" xmlns="http://www.w3.org/2000/svg">
<g clip-path="url(#clip0_315_178)">
<path fill-rule="evenodd" clip-rule="evenodd" d="M5.14287 138.309C5.14287 135.118 4.69587 133.546 5.97003 133.546H135.85C137.147 133.546 136.677 135.118 136.677 138.309C136.677 139.072 136.543 139.072 136.409 139.702H5.41115C5.25463 139.072 5.14287 139.05 5.14287 138.309ZM91.5434 30.1766L119.688 17.0112V122.896C119.688 131.838 121.677 130.714 104.822 124.672C102.52 123.84 100.642 123.054 98.3392 122.223C97.1544 121.796 96.2603 121.481 95.0977 121.009C94.1813 120.649 92.46 119.885 91.5657 119.796V30.1541L91.5434 30.1766ZM23.809 129.344C21.4842 129.344 22.1323 129.142 22.1323 123.188V17.0336L50.2768 30.199V119.84C49.2709 119.931 36.417 124.896 33.9579 125.839C32.0578 126.581 24.9491 129.367 23.809 129.367V129.344ZM29.6659 15.6182H112.154C111.797 15.9327 112.065 15.753 111.506 16.0901L92.6388 25.1441C90.7162 25.9978 87.3407 26.9864 87.3407 29.6374V120.964C87.3407 122.515 89.5761 123.526 90.7833 123.952L100.105 127.457C100.798 127.726 101.491 127.996 102.34 128.289L104.621 129.367H37.177C37.9148 128.738 40.7985 127.772 41.6703 127.457L51.2157 123.885C52.8252 123.323 54.4571 122.424 54.4571 120.425V29.6599C54.4571 26.8066 49.9192 25.5709 46.1859 23.6837L32.9073 17.4156C32.2366 17.1235 31.8791 16.9213 31.2083 16.5843L29.6435 15.6406L29.6659 15.6182ZM17.9521 13.9332V129.344H11.268V80.6142C11.268 77.4689 7.0878 77.9856 7.0878 80.0525V129.344C0.694388 129.344 0.962544 132.175 0.962544 138.016C0.962544 141.094 2.34859 143.902 5.14287 143.902H136.699C139.494 143.902 140.88 141.094 140.88 138.016C140.88 132.22 141.171 129.344 134.755 129.344V80.0525C134.755 77.9856 130.575 77.4689 130.575 80.6142V129.344H123.89V13.9332C123.89 12.5402 122.751 11.417 121.387 11.417H20.5005C18.9804 11.417 17.9968 12.4054 17.9968 13.9332H17.9521Z" fill="white"/>
<path fill-rule="evenodd" clip-rule="evenodd" d="M7.08789 5.53007V70.5261C7.08789 73.2895 10.8434 73.7164 11.2458 70.5036L11.2682 8.04632C11.2458 6.54109 10.9105 4.69876 12.3859 4.69876H129.435C130.865 4.69876 130.574 6.36138 130.553 7.7767C130.329 26.6263 130.553 46.5093 130.553 65.4936C130.553 70.2789 129.836 72.7727 133.056 72.7727C133.727 72.7727 134.732 71.7618 134.732 71.0877V5.55252C134.732 2.83412 132.43 0.52002 129.725 0.52002H12.1177C9.41272 0.52002 7.11022 2.83412 7.11022 5.55252L7.08789 5.53007Z" fill="white"/>
<path fill-rule="evenodd" clip-rule="evenodd" d="M100.462 112.271V80.0534C102.406 80.0534 103.189 79.7838 105.201 79.7838H111.325V117.034C110.387 116.966 104.619 114.517 102.808 113.843C101.892 113.507 100.462 113.237 100.462 112.271ZM96.2812 78.9301V113.394C96.2812 116.18 97.9579 116.427 99.9921 117.236L110.946 121.617C112.78 122.269 115.506 122.696 115.506 119.819V77.5146C115.506 76.5036 114.142 75.5601 113.003 75.5601H100.193C97.7119 75.5601 96.2812 76.4138 96.2812 78.9301Z" fill="white"/>
<path fill-rule="evenodd" clip-rule="evenodd" d="M30.5143 117.034V79.7838H36.0806C38.2713 79.7838 39.255 80.0534 41.3787 80.0534V112.271C41.3787 113.282 38.1819 114.113 36.1923 114.922C34.9405 115.438 31.6096 116.943 30.492 117.034H30.5143ZM26.334 77.5371V119.842C26.334 121.931 28.1224 122.718 30.6708 121.684L41.6693 117.325C43.6812 116.516 45.5813 116.27 45.5813 113.394V78.9301C45.5813 76.4363 44.1729 75.5601 41.6693 75.5601H28.8377C27.6976 75.5601 26.334 76.5036 26.334 77.5146V77.5371Z" fill="white"/>
<path fill-rule="evenodd" clip-rule="evenodd" d="M100.462 37.7494C100.462 36.8508 102.048 36.379 102.876 35.9746C104.709 35.0535 110.141 32.1552 111.325 31.8632V68.5512H100.462V37.7494ZM96.2812 36.3565V69.405C96.2812 71.3371 97.1754 72.7749 99.0755 72.7749H113.562C113.897 72.7749 114.634 72.3256 114.858 72.1234C115.327 71.6965 115.506 71.3371 115.506 70.5283V28.5156C115.506 27.8641 114.59 26.561 113.271 26.561C111.37 26.561 102.362 31.5037 99.5227 32.9191C98.0473 33.6605 96.2812 34.3121 96.2812 36.379V36.3565Z" fill="white"/>
<path fill-rule="evenodd" clip-rule="evenodd" d="M30.5143 31.8612C31.6991 32.1308 37.1312 35.0514 38.9643 35.9726C39.7914 36.3769 41.3787 36.8488 41.3787 37.7474V68.5491H30.5143V31.8612ZM26.334 28.4912V70.5038C26.334 72.0989 27.8095 72.7505 28.2788 72.7505H42.7646C44.6647 72.7505 45.559 71.335 45.559 69.3805V36.8937C45.559 34.2202 44.3965 34.0629 42.5857 33.1643C39.6349 31.6815 30.4472 26.5366 28.2788 26.5366C27.4964 26.5366 26.334 27.7273 26.334 28.4912Z" fill="white"/>
</g>
<defs>
<clipPath id="clip0_315_178">
<rect width="141" height="144" fill="white"/>
</clipPath>
</defs>
</svg>
